<svg width="126" height="126" viewBox="0 0 126 126" fill="none" xmlns="http://www.w3.org/2000/svg">
<path d="M115.905 70.071C115.757 71.5419 114.399 72.2774 113.244 72.9459C112.168 73.5611 111.093 74.1895 110.032 74.8046C108.311 75.7942 106.604 76.7837 104.884 77.7732C102.734 79.0168 100.597 80.2604 98.4464 81.4906C96.081 82.8545 93.7156 84.2318 91.3367 85.5958C88.9579 86.9731 86.579 88.3504 84.1867 89.7277C81.996 90.998 79.8188 92.255 77.6281 93.5253C75.8406 94.555 74.0665 95.5846 72.279 96.6142C71.1098 97.2828 69.9405 97.9648 68.7712 98.6334C67.8842 99.1415 67.0509 99.6497 66.043 99.9438C63.4222 100.693 60.5192 100.439 58.1538 99.0747C57.3071 98.5799 56.4469 98.0985 55.6002 97.6038C54.0412 96.7078 52.4956 95.8253 50.9366 94.9294C48.8937 93.7526 46.8509 92.5759 44.808 91.4126C42.4829 90.0754 40.1444 88.7382 37.8193 87.401C35.4136 86.0237 33.0078 84.633 30.6021 83.2557C28.3308 81.9452 26.0594 80.6482 23.7747 79.3377L17.9687 76.0081C16.5844 75.2058 15.1866 74.4169 13.8023 73.6145C13.1706 73.2535 12.539 72.8925 11.9073 72.5181C10.9127 71.9431 9.93164 71.0338 9.93164 69.8036C9.93164 70.9268 9.93164 72.05 9.9182 73.1867C9.9182 73.5878 9.89132 74.0023 9.9182 74.4169C9.99884 75.5 10.859 76.3424 11.7595 76.8773C12.3105 77.2116 12.875 77.5191 13.4394 77.8401C14.8909 78.6691 16.3424 79.5116 17.7939 80.3406C19.8906 81.5441 21.9737 82.7476 24.0703 83.951C26.5567 85.3818 29.0565 86.8126 31.5429 88.2434C34.1368 89.7411 36.7307 91.2254 39.338 92.723C41.8109 94.1404 44.2704 95.5579 46.7433 96.9753C48.7996 98.152 50.8425 99.3287 52.8988 100.505C54.2831 101.308 55.6808 102.097 57.0651 102.899C57.8715 103.354 58.6645 103.875 59.5381 104.196C62.2664 105.186 65.465 104.972 67.9783 103.514C68.9325 102.966 69.8867 102.404 70.841 101.856C72.6016 100.84 74.3622 99.8235 76.1094 98.8072C78.4076 97.4834 80.6924 96.1596 82.9906 94.8224C85.5576 93.3381 88.1246 91.8538 90.6782 90.3696L98.3792 85.9167C100.677 84.5795 102.976 83.2557 105.287 81.9185C107.075 80.8889 108.862 79.8592 110.65 78.8162C111.631 78.2412 112.625 77.6796 113.607 77.1046C113.902 76.9308 114.211 76.7569 114.494 76.5564C115.246 75.9947 115.838 75.2192 115.851 74.243C115.864 73.7483 115.851 73.2669 115.851 72.7721C115.851 71.796 115.851 70.8064 115.864 69.8303C115.918 69.9373 115.905 70.0041 115.905 70.071C115.905 70.1111 115.905 70.0442 115.905 70.071Z" fill="#AFD386"/>
<path d="M114.075 67.8348C116.63 69.3043 116.644 71.6957 114.102 73.1652L67.7936 99.8978C65.2522 101.367 61.0974 101.367 58.5426 99.8978L11.9245 73.1652C9.36974 71.6957 9.35629 69.3043 11.8976 67.8348L58.2064 41.1022C60.7478 39.6326 64.9026 39.6326 67.4574 41.1022L114.075 67.8348Z" fill="#EDF9E4"/>
<path d="M80.303 23.9967C80.2891 23.9967 80.2891 23.9967 80.303 23.9967C80.2611 23.9688 80.2332 23.9548 80.1914 23.9409H80.1774C80.1635 23.9409 80.1495 23.9269 80.1495 23.9269C80.1356 23.9269 80.1216 23.913 80.0937 23.913C80.0798 23.913 80.0518 23.899 80.0379 23.899C80.0239 23.899 80.01 23.899 80.01 23.885H79.996C79.9542 23.885 79.9263 23.8711 79.8844 23.8711H79.6193C79.6054 23.8711 79.5914 23.8711 79.5775 23.885C79.5495 23.885 79.5216 23.899 79.4937 23.899C79.4798 23.899 79.4658 23.899 79.4519 23.913C79.4379 23.913 79.424 23.9269 79.41 23.9269C79.3682 23.9409 79.3263 23.9548 79.2705 23.9688C79.2565 23.9688 79.2426 23.9827 79.2286 23.9827C79.2147 23.9827 79.2147 23.9967 79.2007 23.9967C79.117 24.0246 79.0472 24.0664 78.9635 24.1083L36.2397 48.791C36.142 48.8468 36.0443 48.9166 35.9467 48.9864C35.9327 49.0003 35.9188 49.0143 35.8909 49.0282C35.8071 49.098 35.7095 49.1817 35.6257 49.2654C35.6118 49.2654 35.6118 49.2794 35.5978 49.2794L35.556 49.3212C35.5141 49.3631 35.4723 49.4049 35.4304 49.4608L35.3885 49.5026C35.3746 49.5166 35.3606 49.5305 35.3606 49.5445C35.3327 49.5724 35.3048 49.6003 35.2909 49.6282C35.2769 49.6421 35.263 49.67 35.249 49.684C35.2351 49.698 35.2211 49.7259 35.2072 49.7398C35.1932 49.7677 35.1653 49.7817 35.1513 49.8096L35.1095 49.8514C35.0955 49.8793 35.0676 49.9072 35.0537 49.9352C35.0397 49.9491 35.0258 49.977 35.0118 49.991C35.0118 50.0049 34.9979 50.0049 34.9979 50.0189C34.97 50.0747 34.9281 50.1305 34.9002 50.1863V50.2003C34.9002 50.2142 34.8862 50.2282 34.8862 50.2282C34.8583 50.27 34.8444 50.3119 34.8165 50.3398C34.8025 50.3537 34.8025 50.3816 34.7886 50.3956C34.7746 50.4096 34.7746 50.4375 34.7607 50.4514C34.7467 50.4654 34.7467 50.4793 34.7328 50.5072C34.7188 50.5491 34.6909 50.5909 34.6769 50.6328C34.6769 50.6468 34.663 50.6468 34.663 50.6607V50.6747C34.6351 50.7305 34.6211 50.7863 34.5932 50.8421C34.5932 50.856 34.5932 50.856 34.5793 50.87C34.5653 50.884 34.5653 50.9119 34.5514 50.9258C34.5374 50.9537 34.5235 50.9816 34.5235 51.0095C34.5095 51.0374 34.5095 51.0514 34.5095 51.0793C34.4956 51.1072 34.4956 51.1351 34.4816 51.163C34.4816 51.177 34.4677 51.1909 34.4677 51.2188C34.4537 51.2467 34.4537 51.2746 34.4537 51.3025C34.4397 51.3304 34.4398 51.3723 34.4258 51.4002C34.4258 51.4142 34.4258 51.4281 34.4118 51.4421C34.4118 51.47 34.3979 51.4839 34.3979 51.5118C34.3839 51.5676 34.3839 51.6095 34.37 51.6653C34.37 51.6793 34.37 51.6932 34.356 51.7072V51.749C34.3421 51.8607 34.3281 51.9723 34.3281 52.0839L34.4118 81.4967C34.4118 81.7897 34.4677 82.0408 34.5653 82.2501C34.663 82.4594 34.8025 82.6129 34.97 82.7106L37.035 83.9105C36.7001 83.7152 36.4769 83.2966 36.4769 82.6966L36.4211 53.256C36.4211 53.1443 36.435 53.0327 36.449 52.9211C36.449 52.8932 36.449 52.8653 36.4629 52.8374C36.4769 52.7816 36.4769 52.7397 36.4908 52.6839C36.4908 52.656 36.5048 52.6141 36.5048 52.5862C36.5187 52.5583 36.5187 52.5164 36.5327 52.4885C36.5466 52.4467 36.5606 52.4048 36.5745 52.349C36.5885 52.3211 36.5885 52.2932 36.6024 52.2653C36.6164 52.2095 36.6304 52.1676 36.6583 52.1118C36.6722 52.0979 36.6722 52.07 36.6862 52.056L36.7699 51.8467C36.7699 51.8328 36.7838 51.8328 36.7838 51.8188C36.8117 51.763 36.8397 51.6932 36.8676 51.6374C36.8815 51.6235 36.8815 51.5956 36.8955 51.5816C36.9234 51.5258 36.9513 51.47 36.9931 51.4142C36.9931 51.4002 37.0071 51.3863 37.0071 51.3863C37.0489 51.3165 37.0908 51.2607 37.1327 51.1909C37.1466 51.177 37.1606 51.1491 37.1745 51.1351C37.2024 51.0932 37.2303 51.0514 37.2722 50.9956C37.2861 50.9677 37.3141 50.9537 37.328 50.9258C37.3559 50.884 37.3838 50.856 37.4117 50.8142C37.4396 50.7863 37.4675 50.7584 37.4815 50.7305C37.5094 50.7026 37.5233 50.6747 37.5513 50.6468C37.5931 50.6049 37.635 50.563 37.6768 50.5072C37.6908 50.4793 37.7187 50.4654 37.7466 50.4375C37.8303 50.3537 37.914 50.27 38.0117 50.2003C38.0256 50.1863 38.0396 50.1724 38.0675 50.1584C38.1652 50.0886 38.2628 50.0189 38.3605 49.9631L81.0704 25.3082C81.1541 25.2664 81.2239 25.2245 81.3076 25.1966C81.3355 25.1827 81.3634 25.1827 81.3774 25.1687L81.503 25.1269C81.5309 25.1129 81.5588 25.1129 81.5867 25.099C81.6146 25.099 81.6425 25.085 81.6704 25.085C81.6983 25.085 81.7402 25.071 81.7681 25.071H81.9774C82.0192 25.071 82.075 25.085 82.1169 25.085C82.1308 25.085 82.1448 25.085 82.1448 25.099C82.1867 25.1129 82.2146 25.1129 82.2425 25.1269C82.2564 25.1269 82.2704 25.1408 82.2704 25.1408C82.3122 25.1548 82.3541 25.1827 82.3959 25.1966L80.303 23.9967Z" fill="#708F00"/>
<path d="M81.0154 25.3361C82.0619 24.7362 82.913 25.2245 82.913 26.4105L82.9967 55.8233C82.9967 57.0232 82.1456 58.4883 81.1131 59.0883L38.4032 83.7431C37.3567 84.343 36.5056 83.8547 36.5056 82.6687L36.4219 53.2559C36.4219 52.056 37.273 50.5909 38.3055 49.991L81.0154 25.3361Z" fill="#A7D80D"/>
<path d="M47.2182 60.1905C49.5902 58.8232 51.5157 59.8836 51.5157 62.5625V62.8695C51.5157 63.9299 49.6041 65.0741 47.2321 66.4415L44.4695 68.0321C42.0975 69.3995 40.1859 70.5018 40.172 69.4134V69.1065C40.158 66.4275 42.0835 63.1486 44.4415 61.7812L47.2182 60.1905Z" fill="#708F00"/>
<path d="M40.7093 70.3064C40.7093 70.4459 40.7511 70.5576 40.8069 70.6273C40.8348 70.6552 40.8488 70.6692 40.8767 70.6832L42.3836 71.5622C42.272 71.4924 42.2022 71.3668 42.2022 71.1715V70.8645L40.6953 69.9855L40.7093 70.3064Z" fill="#ACC5EA"/>
<path d="M50.824 60.7766C50.8101 60.7766 50.8101 60.7626 50.7961 60.7626C50.7263 60.7208 50.6566 60.6929 50.5868 60.6649C50.5729 60.6649 50.5589 60.651 50.545 60.651C50.517 60.637 50.5031 60.637 50.4752 60.6231C50.4333 60.6091 50.4054 60.5952 50.3636 60.5812C50.3217 60.5673 50.2798 60.5673 50.238 60.5533C50.2101 60.5533 50.1961 60.5394 50.1682 60.5394C50.1543 60.5394 50.1403 60.5394 50.1264 60.5254C50.0426 60.5115 49.9589 60.4975 49.8613 60.4975H49.5822C49.5543 60.4975 49.5264 60.4975 49.5124 60.5115C49.4706 60.5115 49.4287 60.5254 49.3869 60.5254C49.345 60.5254 49.3171 60.5254 49.2752 60.5394C49.2334 60.5394 49.2055 60.5533 49.1636 60.5673C49.1078 60.5812 49.052 60.5952 48.9822 60.6091C48.9543 60.6231 48.9264 60.6231 48.8846 60.6231C48.8148 60.637 48.7311 60.6649 48.6474 60.6929H48.6334C48.5497 60.7208 48.452 60.7626 48.3683 60.7905C48.3264 60.8045 48.2985 60.8184 48.2567 60.8463C48.2288 60.8603 48.1869 60.8742 48.159 60.8882C48.0334 60.944 47.8939 61.0138 47.7544 61.0975L44.9917 62.6881C44.8522 62.7718 44.7126 62.8556 44.5871 62.9532C44.5452 62.9811 44.5033 63.023 44.4615 63.0509C44.3638 63.1207 44.2801 63.1765 44.1964 63.2602C44.1406 63.302 44.0987 63.3439 44.0429 63.3858C43.9592 63.4555 43.8755 63.5253 43.8057 63.5951C43.7499 63.6369 43.708 63.6927 43.6522 63.7346C43.6243 63.7625 43.5824 63.7904 43.5545 63.8323L43.4708 63.916C43.3731 64.0136 43.2755 64.1253 43.1778 64.2369L43.0801 64.3346C43.0662 64.3625 43.0383 64.3764 43.0243 64.4043L42.8569 64.6136C42.815 64.6694 42.7732 64.7113 42.7313 64.7671C42.7034 64.795 42.6895 64.8229 42.6616 64.8648C42.6197 64.9206 42.5778 64.9764 42.5499 65.0322C42.522 65.0741 42.4802 65.1159 42.4523 65.1717C42.4104 65.2276 42.3825 65.2694 42.3406 65.3252C42.3127 65.3671 42.2848 65.4229 42.243 65.4648C42.229 65.4927 42.2151 65.5206 42.1871 65.5345C42.1174 65.6461 42.0476 65.7717 41.9779 65.8833V65.8973C41.9081 66.0089 41.8383 66.1345 41.7825 66.2601C41.7686 66.288 41.7546 66.3159 41.7407 66.3577C41.7128 66.3996 41.6988 66.4415 41.6848 66.4833C41.6569 66.5252 41.629 66.581 41.6151 66.6228C41.5732 66.6926 41.5453 66.7763 41.5035 66.86C41.4895 66.888 41.4756 66.9298 41.4616 66.9577C41.4616 66.9717 41.4476 66.9856 41.4476 66.9996C41.3918 67.1252 41.336 67.2507 41.2942 67.3763C41.2942 67.3903 41.2802 67.4042 41.2802 67.4182L41.2384 67.5437C41.2104 67.6135 41.1825 67.6972 41.1546 67.767L41.1128 67.8926C41.0988 67.9484 41.0709 68.0042 41.057 68.06L41.0151 68.1856C41.0012 68.2414 40.9872 68.2972 40.9732 68.367C40.9593 68.4367 40.9314 68.5065 40.9174 68.5763C40.9174 68.6042 40.9035 68.6321 40.8895 68.66C40.8756 68.7158 40.8756 68.7576 40.8616 68.8135C40.8477 68.9251 40.8198 69.0228 40.8058 69.1344C40.8058 69.1623 40.7919 69.2041 40.7919 69.232C40.7779 69.3018 40.7779 69.3716 40.7779 69.4274C40.7779 69.4832 40.764 69.525 40.764 69.5809C40.75 69.7343 40.75 69.8878 40.75 70.0413L42.2569 70.9203C42.2569 70.7669 42.2709 70.6134 42.2709 70.4599C42.2709 70.4041 42.2848 70.3622 42.2848 70.3064C42.2988 70.2087 42.3127 70.1111 42.3267 69.9994C42.3406 69.8878 42.3546 69.7902 42.3825 69.6785C42.3964 69.5948 42.4104 69.5111 42.4244 69.4413C42.4383 69.3716 42.4523 69.3018 42.4802 69.232C42.5081 69.1344 42.536 69.0228 42.5639 68.9251C42.5778 68.8693 42.5918 68.8135 42.6197 68.7576C42.6615 68.646 42.7034 68.5204 42.7453 68.4088L42.7871 68.2832C42.8429 68.1298 42.9127 67.9763 42.9825 67.8228C42.9964 67.7949 43.0104 67.753 43.0243 67.7251C43.0801 67.5995 43.136 67.474 43.2057 67.3484C43.2197 67.3065 43.2476 67.2647 43.2615 67.2228C43.3452 67.0693 43.415 66.9159 43.5127 66.7763V66.7624C43.5964 66.6228 43.6801 66.4694 43.7778 66.3298C43.8057 66.288 43.8336 66.2322 43.8755 66.1903L44.0847 65.8973L44.2103 65.7299C44.2661 65.6461 44.3359 65.5624 44.4057 65.4927L44.5731 65.2834C44.6289 65.2276 44.6708 65.1717 44.7266 65.1159C44.8243 65.0043 44.9219 64.9066 45.0196 64.795L45.201 64.6136C45.2568 64.5718 45.2987 64.516 45.3545 64.4741C45.4382 64.4043 45.5079 64.3346 45.5917 64.2648C45.6475 64.2229 45.6893 64.1811 45.7451 64.1392C45.8289 64.0695 45.9265 63.9997 46.0103 63.9299C46.0521 63.902 46.094 63.8602 46.1358 63.8323C46.2754 63.7346 46.4149 63.6509 46.5405 63.5672L49.3031 61.9765C49.4427 61.8928 49.5682 61.837 49.7078 61.7672C49.7357 61.7533 49.7775 61.7393 49.8054 61.7254C49.931 61.6696 50.0566 61.6137 50.1822 61.5719H50.1961C50.3078 61.53 50.4194 61.5021 50.517 61.4742C50.5729 61.4603 50.6426 61.4463 50.6984 61.4324C50.7682 61.4184 50.8519 61.4045 50.9217 61.3905C50.9635 61.3905 51.0054 61.3765 51.0473 61.3765C51.1449 61.3765 51.2286 61.3626 51.3124 61.3765H51.3821C51.4938 61.3765 51.5914 61.3905 51.703 61.4184C51.7309 61.4184 51.7589 61.4324 51.7728 61.4324C51.8565 61.4463 51.9402 61.4742 52.01 61.5021C52.0379 61.5161 52.0658 61.5161 52.0798 61.53C52.1774 61.5719 52.2751 61.6137 52.3588 61.6696L50.824 60.7766Z" fill="#ACC5EA"/>
<path d="M45.3148 53.0048C47.1426 51.9444 48.6356 52.7676 48.6495 54.8466C48.6635 56.9256 47.1705 59.451 45.3427 60.5115C43.5148 61.5719 42.0219 60.7487 42.0079 58.6697C41.994 56.5907 43.473 54.0652 45.3148 53.0048Z" fill="#708F00"/>
<path d="M49.2494 61.9486C51.6214 60.5812 53.5469 61.6417 53.5469 64.3206V64.6276C53.5469 65.688 51.6354 66.8322 49.2634 68.1995L46.5007 69.7902C44.1287 71.1576 42.2172 72.2598 42.2032 71.1715V70.8645C42.1892 68.1856 44.1148 64.9066 46.4728 63.5393L49.2494 61.9486Z" fill="white"/>
<path d="M48.3791 53.7583C48.4768 53.7303 48.5605 53.7024 48.6442 53.6885C48.6861 53.6745 48.7419 53.6745 48.7838 53.6606C48.8396 53.6466 48.8954 53.6466 48.9652 53.6327C48.9931 53.6327 49.0349 53.6187 49.0628 53.6187H49.3279C49.4117 53.6187 49.4954 53.6327 49.5791 53.6466C49.593 53.6466 49.621 53.6606 49.6349 53.6606C49.7047 53.6745 49.7605 53.6885 49.8163 53.7164C49.8302 53.7164 49.8581 53.7303 49.8721 53.7303C49.9419 53.7582 50.0256 53.8001 50.0953 53.828L48.5884 52.949C48.5884 52.949 48.5745 52.949 48.5745 52.935L48.407 52.8513C48.3931 52.8513 48.3791 52.8374 48.3791 52.8374C48.3652 52.8234 48.3373 52.8234 48.3233 52.8234C48.2954 52.8095 48.2675 52.7955 48.2396 52.7955C48.2117 52.7815 48.1698 52.7815 48.1419 52.7676C48.128 52.7676 48.1001 52.7536 48.0861 52.7536H48.0582C47.9885 52.7397 47.9187 52.7397 47.8629 52.7257H47.5838C47.5559 52.7257 47.5141 52.7257 47.4861 52.7397C47.4582 52.7397 47.4303 52.7397 47.4024 52.7536C47.3745 52.7536 47.3466 52.7676 47.3187 52.7676C47.2769 52.7815 47.221 52.7815 47.1792 52.7955C47.1513 52.7955 47.1373 52.8094 47.1094 52.8094C47.0536 52.8234 46.9978 52.8374 46.928 52.8653H46.9141C46.8443 52.8932 46.7746 52.9071 46.7048 52.949L46.6211 52.9908L46.5374 53.0327C46.4397 53.0746 46.3281 53.1304 46.2304 53.1862C46.1188 53.242 46.0211 53.3118 45.9095 53.3815C45.8816 53.4094 45.8397 53.4373 45.8118 53.4513C45.742 53.5071 45.6723 53.549 45.6025 53.6048C45.5606 53.6327 45.5188 53.6745 45.4909 53.7024C45.4351 53.7582 45.3653 53.8141 45.3095 53.8699C45.2676 53.9117 45.2258 53.9396 45.1979 53.9815C45.17 54.0094 45.1421 54.0234 45.1142 54.0513L45.0444 54.121C44.9607 54.2047 44.8909 54.2885 44.8211 54.3722C44.7932 54.4001 44.7653 54.428 44.7514 54.4559C44.7374 54.4698 44.7235 54.4978 44.7095 54.5117C44.6677 54.5675 44.6258 54.6094 44.5839 54.6652C44.556 54.707 44.5142 54.735 44.4863 54.7768C44.4723 54.8047 44.4584 54.8187 44.4305 54.8466C44.4026 54.8884 44.3747 54.9303 44.3328 54.9722C44.3049 55.014 44.277 55.0419 44.2491 55.0698L44.1654 55.1954C44.1374 55.2373 44.1235 55.2652 44.0956 55.307C44.0816 55.321 44.0677 55.3489 44.0537 55.3628C43.9979 55.4466 43.9421 55.5442 43.8863 55.6419C43.8305 55.7396 43.7886 55.8233 43.7328 55.921C43.7189 55.9489 43.7049 55.9628 43.691 55.9907C43.677 56.0186 43.663 56.0605 43.6491 56.0884C43.6351 56.1302 43.6072 56.1582 43.5933 56.2C43.5654 56.2558 43.5375 56.3256 43.5096 56.3814C43.4956 56.4093 43.4817 56.4372 43.4817 56.4512C43.4817 56.4651 43.4677 56.4651 43.4677 56.4791L43.3421 56.7721C43.3421 56.786 43.3282 56.8 43.3282 56.8139C43.3142 56.8418 43.3003 56.8697 43.3003 56.9116C43.2724 56.9674 43.2584 57.0232 43.2305 57.093C43.2166 57.1209 43.2166 57.1628 43.2026 57.1907C43.1887 57.2325 43.1747 57.2744 43.1607 57.3302C43.1468 57.3581 43.1328 57.4 43.1328 57.4279C43.1189 57.4697 43.1049 57.5255 43.1049 57.5674L43.0631 57.7348C43.0631 57.7627 43.0491 57.7767 43.0491 57.8046C43.0352 57.8465 43.0352 57.8883 43.0352 57.9302L42.9933 58.1813C42.9933 58.2092 42.9794 58.2371 42.9794 58.265C42.9794 58.3209 42.9654 58.3627 42.9654 58.4185C42.9654 58.4604 42.9514 58.4883 42.9514 58.5301C42.9375 58.6557 42.9375 58.7673 42.9375 58.8929C42.9375 59.9115 43.3003 60.6231 43.8863 60.9719L45.3932 61.8509C44.8072 61.5161 44.4444 60.7905 44.4444 59.772C44.4444 59.6603 44.4444 59.5348 44.4584 59.4092C44.4584 59.3673 44.4723 59.3394 44.4723 59.2976C44.4863 59.2138 44.4863 59.1441 44.5002 59.0604L44.5421 58.8092C44.556 58.7534 44.57 58.6836 44.5839 58.6278L44.6258 58.4604C44.6398 58.3767 44.6677 58.3069 44.6956 58.2232C44.7095 58.1813 44.7235 58.1395 44.7374 58.0837C44.7653 57.986 44.7932 57.9023 44.8351 57.8046C44.849 57.7767 44.863 57.7488 44.863 57.7069C44.9049 57.5813 44.9607 57.4697 45.0025 57.3441C45.0165 57.3162 45.0304 57.2883 45.0304 57.2744C45.0723 57.1767 45.1142 57.079 45.17 56.9814C45.1839 56.9535 45.1979 56.9116 45.2118 56.8837C45.2676 56.7721 45.3374 56.6465 45.4072 56.5349L45.6165 56.2C45.6444 56.1582 45.6583 56.1302 45.6862 56.0884C45.742 56.0186 45.7839 55.9349 45.8397 55.8651C45.8676 55.8233 45.8955 55.7814 45.9374 55.7396C45.9792 55.6698 46.035 55.614 46.0909 55.5582C46.1327 55.5024 46.1746 55.4466 46.2164 55.4047C46.2583 55.3628 46.3002 55.321 46.3281 55.2791C46.3978 55.1954 46.4815 55.1117 46.5513 55.028L46.6908 54.8884L46.8025 54.7768C46.8583 54.721 46.928 54.6652 46.9838 54.6094C47.0257 54.5815 47.0676 54.5396 47.0955 54.5117C47.1652 54.4559 47.235 54.4001 47.3048 54.3582C47.3327 54.3303 47.3745 54.3024 47.4024 54.2885C47.5141 54.2187 47.6117 54.1489 47.7234 54.0931C47.821 54.0373 47.9326 53.9815 48.0303 53.9396L48.114 53.8978C48.1838 53.842 48.2815 53.8001 48.3791 53.7583Z" fill="#ACC5EA"/>
<path d="M47.6976 54.0792C49.5254 53.0187 51.0184 53.842 51.0323 55.921C51.0323 57.9999 49.5533 60.5254 47.7255 61.5858C45.8976 62.6463 44.4047 61.823 44.3907 59.7441C44.3768 57.6651 45.8697 55.1396 47.6976 54.0792Z" fill="white"/>
<path d="M76.71 33.7498C77.3658 33.373 77.91 33.68 77.91 34.4335C77.91 35.1869 77.3797 36.1218 76.724 36.4985L57.7759 47.4376C57.1201 47.8143 56.5759 47.5073 56.5759 46.7539C56.5759 46.0004 57.1061 45.0656 57.7619 44.6889L76.71 33.7498ZM76.4449 42.5401C77.1007 42.1634 77.6449 42.4703 77.6449 43.2238C77.6449 43.9773 77.1146 44.9121 76.4589 45.2888L57.4968 56.2279C56.841 56.6047 56.2969 56.2977 56.2969 55.5442C56.2969 54.7908 56.8271 53.8559 57.4829 53.4792L76.4449 42.5401Z" fill="#708F00"/>
<path d="M77.9216 34.6567C77.9076 34.6567 77.9076 34.6567 77.9216 34.6567C77.8937 34.6428 77.8797 34.6288 77.8518 34.6288H77.8379C77.8379 34.6288 77.8239 34.6288 77.8239 34.6148C77.8099 34.6148 77.8099 34.6009 77.796 34.6009C77.782 34.6009 77.7681 34.6009 77.7681 34.5869H77.7402H77.7262C77.6983 34.5869 77.6844 34.5869 77.6565 34.573H77.5867H77.4751C77.4611 34.573 77.4472 34.573 77.4332 34.5869H77.4053C77.3914 34.5869 77.3914 34.5869 77.3774 34.6009C77.3495 34.6148 77.3216 34.6148 77.2937 34.6288C77.2797 34.6288 77.2797 34.6288 77.2658 34.6428C77.2658 34.6428 77.2518 34.6428 77.2518 34.6567C77.196 34.6846 77.1542 34.6986 77.0983 34.7265L58.1503 45.6656C58.0805 45.7074 57.9968 45.7632 57.927 45.819C57.8991 45.833 57.8852 45.8609 57.8573 45.8749C57.8294 45.9028 57.7875 45.9307 57.7596 45.9725C57.7456 45.9865 57.7317 46.0004 57.7177 46.0283L57.6759 46.0702L57.634 46.1121C57.6061 46.1539 57.5643 46.1958 57.5364 46.2376C57.5224 46.2516 57.5084 46.2655 57.5084 46.2795C57.5084 46.2934 57.4945 46.2934 57.4945 46.3074C57.4805 46.3213 57.4805 46.3353 57.4666 46.3493C57.4387 46.3772 57.4247 46.419 57.3968 46.4469C57.3689 46.4748 57.355 46.5167 57.341 46.5446V46.5725L57.2992 46.6562C57.2852 46.6841 57.2573 46.726 57.2433 46.7539C57.2294 46.7818 57.2154 46.8097 57.2015 46.8516C57.1875 46.8934 57.1736 46.9213 57.1596 46.9632C57.1457 47.005 57.1317 47.0329 57.1178 47.0748C57.1178 47.0888 57.1038 47.1167 57.1038 47.1306C57.1038 47.1446 57.1038 47.1446 57.0899 47.1585C57.0899 47.1725 57.0759 47.1864 57.0759 47.2004C57.062 47.2422 57.048 47.2981 57.048 47.3399C57.048 47.3678 57.034 47.3957 57.034 47.4236C57.034 47.4376 57.034 47.4515 57.0201 47.4655C57.0201 47.4794 57.0201 47.4934 57.0061 47.5073C56.9922 47.5911 56.9922 47.6608 56.9922 47.7445C56.9922 47.9259 57.0201 48.0934 57.0899 48.2189C57.1457 48.3445 57.2433 48.4422 57.341 48.512L58.8479 49.391C58.6386 49.2654 58.4991 49.0003 58.4991 48.6236C58.4991 48.5399 58.5131 48.4422 58.527 48.3445C58.527 48.3306 58.527 48.3166 58.541 48.3027C58.5549 48.2189 58.5689 48.1352 58.5968 48.0376C58.5968 48.0236 58.5968 48.0236 58.6107 48.0097C58.6386 47.912 58.6805 47.8143 58.7084 47.7306C58.7503 47.6329 58.7921 47.5353 58.8479 47.4515V47.4376L59.0154 47.1864C59.0154 47.1725 59.0293 47.1725 59.0293 47.1585C59.0851 47.0888 59.1409 47.019 59.2107 46.9492L59.2526 46.9074C59.2944 46.8516 59.3502 46.8097 59.406 46.7678C59.434 46.7539 59.4479 46.726 59.4758 46.712C59.5456 46.6562 59.6293 46.6004 59.6991 46.5585L78.5634 35.6195C78.6192 35.5916 78.6611 35.5636 78.7169 35.5497C78.7308 35.5497 78.7448 35.5357 78.7587 35.5357C78.7867 35.5218 78.8146 35.5218 78.8425 35.5078C78.8564 35.5078 78.8843 35.4939 78.8983 35.4939C78.9122 35.4939 78.9262 35.4799 78.9401 35.4799C78.968 35.4799 78.982 35.466 79.0099 35.466H79.1494C79.1773 35.466 79.2052 35.466 79.2331 35.4799H79.2611C79.289 35.4799 79.3029 35.4939 79.3308 35.4939C79.3308 35.4939 79.3448 35.4939 79.3448 35.5078L79.4285 35.5497L77.9216 34.6567Z" fill="#ACC5EA"/>
<path d="M78.5638 35.6194C79.2195 35.2427 79.7637 35.5497 79.7637 36.3031C79.7637 37.0566 79.2335 37.9914 78.5777 38.3682L59.6296 49.3073C58.9738 49.684 58.4297 49.377 58.4297 48.6236C58.4297 47.8701 58.9599 46.9353 59.6157 46.5585L78.5638 35.6194Z" fill="white"/>
<path d="M77.9216 43.2378C77.9076 43.2238 77.9076 43.2378 77.9216 43.2378C77.8937 43.2238 77.8797 43.2098 77.8518 43.2098H77.8379C77.8379 43.2098 77.8239 43.2098 77.8239 43.1959C77.81 43.1959 77.8099 43.1819 77.796 43.1819C77.782 43.1819 77.7681 43.1819 77.7681 43.168H77.7402H77.7262C77.6983 43.168 77.6844 43.168 77.6565 43.154H77.5867H77.4751C77.4611 43.154 77.4472 43.154 77.4332 43.168H77.4053C77.3914 43.168 77.3914 43.168 77.3774 43.1819C77.3495 43.1959 77.3216 43.1959 77.2937 43.2098C77.2797 43.2098 77.2797 43.2098 77.2658 43.2238C77.2658 43.2238 77.2518 43.2238 77.2518 43.2378C77.196 43.2657 77.1542 43.2796 77.0984 43.3075L58.1503 54.2466C58.0805 54.2885 57.9968 54.3443 57.927 54.4001C57.8991 54.414 57.8852 54.442 57.8573 54.4559C57.8294 54.4838 57.7875 54.5117 57.7596 54.5536C57.7456 54.5675 57.7317 54.5815 57.7177 54.6094L57.6759 54.6512L57.634 54.6931C57.6061 54.735 57.5643 54.7768 57.5364 54.8187C57.5224 54.8326 57.5084 54.8466 57.5084 54.8605C57.5084 54.8745 57.4945 54.8745 57.4945 54.8884C57.4805 54.9024 57.4805 54.9164 57.4666 54.9303C57.4387 54.9582 57.4247 55.0001 57.3968 55.028C57.3689 55.0559 57.355 55.0977 57.341 55.1256V55.1536L57.2992 55.2373C57.2852 55.2652 57.2573 55.307 57.2433 55.3349C57.2294 55.3628 57.2154 55.3908 57.2015 55.4326V55.4466C57.1875 55.4884 57.1736 55.5163 57.1596 55.5582C57.1457 55.6 57.1317 55.6279 57.1178 55.6698C57.1178 55.6838 57.1038 55.7117 57.1038 55.7256C57.1038 55.7396 57.1038 55.7396 57.0899 55.7535C57.0899 55.7675 57.0759 55.7814 57.0759 55.7954C57.062 55.8372 57.048 55.8931 57.048 55.9349C57.048 55.9628 57.034 55.9907 57.034 56.0186C57.034 56.0326 57.034 56.0465 57.0201 56.0605C57.0201 56.0744 57.0201 56.0884 57.0061 56.1023C56.9922 56.1861 56.9922 56.2558 56.9922 56.3396C56.9922 56.7163 57.1317 56.9814 57.341 57.107L58.8479 57.986C58.6386 57.8604 58.4991 57.5953 58.4991 57.2186C58.4991 57.1349 58.5131 57.0372 58.527 56.9395C58.527 56.9256 58.527 56.9116 58.541 56.8977C58.5549 56.8139 58.5689 56.7302 58.5968 56.6326C58.5968 56.6186 58.5968 56.6186 58.6107 56.6047C58.6386 56.507 58.6805 56.4093 58.7084 56.3256C58.7503 56.2279 58.7921 56.1442 58.8479 56.0465V56.0326L59.0154 55.7814C59.0154 55.7675 59.0293 55.7675 59.0293 55.7535C59.0851 55.6838 59.1409 55.614 59.2107 55.5442L59.2526 55.5024C59.2944 55.4466 59.3502 55.4047 59.406 55.3628C59.434 55.3489 59.4479 55.321 59.4758 55.307C59.5456 55.2512 59.6293 55.1954 59.6991 55.1536L78.5634 44.1866C78.6192 44.1586 78.6611 44.1307 78.7169 44.1168C78.7308 44.1168 78.7448 44.1028 78.7588 44.1028C78.7867 44.0889 78.8146 44.0889 78.8425 44.0749C78.8564 44.0749 78.8843 44.061 78.8983 44.061C78.9122 44.061 78.9262 44.047 78.9541 44.047C78.982 44.047 78.9959 44.0331 79.0239 44.0331H79.1634C79.1913 44.0331 79.2192 44.0331 79.2471 44.047H79.275C79.3029 44.047 79.3169 44.061 79.3448 44.061C79.3448 44.061 79.3587 44.061 79.3587 44.0749L79.4424 44.1168L77.9216 43.2378Z" fill="#ACC5EA"/>
<path d="M78.5638 44.1865C79.2195 43.8098 79.7637 44.1168 79.7637 44.8702C79.7637 45.6237 79.2335 46.5585 78.5777 46.9353L59.6296 57.8744C58.9738 58.2511 58.4297 57.9441 58.4297 57.1907C58.4297 56.4372 58.9599 55.5024 59.6157 55.1256L78.5638 44.1865Z" fill="white"/>
<path d="M68.115 56.214C68.7708 55.8372 69.315 56.1442 69.315 56.8977C69.315 57.6511 68.7847 58.586 68.129 58.9627L57.4968 65.102C56.841 65.4787 56.2969 65.1717 56.2969 64.4183C56.2969 63.6648 56.8271 62.73 57.4829 62.3532L68.115 56.214Z" fill="#708F00"/>
<path d="M71.1672 57.6093L69.6603 56.7302C69.6464 56.7163 69.6185 56.7163 69.6045 56.7023H69.5906C69.5906 56.7023 69.5766 56.7023 69.5766 56.6884C69.5626 56.6884 69.5627 56.6744 69.5487 56.6744C69.5347 56.6744 69.5208 56.6744 69.5208 56.6605H69.4929H69.4789C69.451 56.6605 69.4371 56.6605 69.4092 56.6465H69.3394H69.2278C69.2138 56.6465 69.1999 56.6465 69.172 56.6605H69.1441C69.1301 56.6605 69.1301 56.6605 69.1162 56.6744C69.0882 56.6884 69.0603 56.6884 69.0324 56.7023C69.0185 56.7023 69.0185 56.7023 69.0045 56.7163C69.0045 56.7163 68.9906 56.7163 68.9906 56.7302C68.9348 56.7581 68.8929 56.7721 68.8371 56.8L58.205 62.9393L59.7119 63.8183L70.344 57.679C70.3998 57.6511 70.4417 57.6232 70.4975 57.6093C70.5114 57.6093 70.5254 57.5953 70.5394 57.5953C70.5673 57.5814 70.5952 57.5814 70.6231 57.5674C70.637 57.5674 70.6649 57.5535 70.6789 57.5535C70.6928 57.5535 70.7068 57.5395 70.7347 57.5395C70.7626 57.5395 70.7766 57.5256 70.8045 57.5256H70.944C70.9719 57.5256 70.9998 57.5255 71.0277 57.5395H71.0556C71.0835 57.5395 71.0975 57.5535 71.1254 57.5535C71.1254 57.5535 71.1393 57.5535 71.1393 57.5674C71.1254 57.5814 71.1533 57.5953 71.1672 57.6093ZM57.9678 63.1207C57.9399 63.1346 57.9259 63.1625 57.898 63.1765C57.8561 63.2044 57.8282 63.2323 57.8003 63.2742C57.7864 63.2881 57.7724 63.3021 57.7585 63.33L57.7166 63.3718L57.6748 63.4137C57.6469 63.4555 57.605 63.4974 57.5771 63.5253C57.5631 63.5393 57.5492 63.5532 57.5492 63.5672C57.5492 63.5811 57.5352 63.5811 57.5352 63.5951C57.5213 63.609 57.5213 63.623 57.5073 63.6369C57.4794 63.6648 57.4655 63.7067 57.4376 63.7346C57.4097 63.7625 57.3957 63.8044 57.3817 63.8323V63.8602L57.3399 63.9439C57.3259 63.9718 57.298 64.0137 57.2841 64.0416C57.2701 64.0695 57.2562 64.0974 57.2422 64.1392C57.2283 64.1811 57.2143 64.209 57.2004 64.2509C57.1864 64.2927 57.1725 64.3206 57.1585 64.3625C57.1585 64.3764 57.1445 64.4043 57.1445 64.4183C57.1445 64.4322 57.1445 64.4322 57.1306 64.4462C57.1306 64.4602 57.1166 64.4741 57.1166 64.4881C57.1027 64.5299 57.0887 64.5857 57.0887 64.6276C57.0887 64.6555 57.0748 64.6834 57.0748 64.7113C57.0748 64.7253 57.0748 64.7392 57.0608 64.7532V64.795C57.0469 64.8787 57.0469 64.9485 57.0469 65.0322C57.0469 65.409 57.1864 65.6741 57.3957 65.7996L58.9026 66.6787C58.6933 66.5531 58.5538 66.288 58.5538 65.9113C58.5538 65.8275 58.5677 65.7299 58.5817 65.6322C58.5817 65.6182 58.5817 65.6043 58.5957 65.5903C58.6096 65.5066 58.6236 65.4229 58.6515 65.3252C58.6515 65.3113 58.6515 65.3113 58.6654 65.2973C58.6933 65.1997 58.7352 65.102 58.7631 65.0183C58.8049 64.9206 58.8468 64.8229 58.9026 64.7392V64.7253L59.07 64.4741C59.07 64.4602 59.084 64.4602 59.084 64.4462C59.1398 64.3764 59.1956 64.3067 59.2654 64.2369L59.3073 64.195C59.3491 64.1392 59.4049 64.0974 59.4607 64.0555C59.4886 64.0416 59.5026 64.0137 59.5305 63.9997C59.6003 63.9439 59.684 63.8881 59.7537 63.8462L58.2468 62.9672C58.1073 63.0091 58.0375 63.0509 57.9678 63.1207Z" fill="#ACC5EA"/>
<path d="M70.3103 57.693C70.9661 57.3162 71.5103 57.6232 71.5103 58.3767C71.5103 59.1301 70.9801 60.065 70.3243 60.4417L59.6921 66.581C59.0363 66.9577 58.4922 66.6508 58.4922 65.8973C58.4922 65.1438 59.0224 64.209 59.6782 63.8323L70.3103 57.693Z" fill="white"/>
<path d="M92.3992 55.9125L90.5781 54.8543C90.5904 54.8543 90.6027 54.8666 90.6273 54.8666L92.4484 55.9248C92.4238 55.9248 92.4115 55.9125 92.3992 55.9125Z" fill="#A8871E"/>
<path d="M92.4305 55.9248L90.6094 54.8666L90.6832 54.9035L92.5043 55.9617L92.4305 55.9248Z" fill="#A3831D"/>
<path d="M92.5086 55.9617L90.6875 54.9035H90.6998L92.5086 55.9617Z" fill="#9E7F1D"/>
<path d="M78.6764 75.4769L76.8553 74.4187C76.8061 74.3572 76.7568 74.3203 76.6953 74.2834L78.5164 75.3416C78.5779 75.3785 78.6272 75.4277 78.6764 75.4769Z" fill="#856B18"/>
<path d="M90.0711 54.5836L88.25 53.5254L90.5756 54.8543L92.3967 55.9125L90.0711 54.5836Z" fill="#9E7F1D"/>
<path d="M87.7424 48.7143C87.7178 48.702 87.6932 48.6896 87.6809 48.6896C87.6686 48.6773 87.6562 48.6773 87.6316 48.665C87.6193 48.665 87.6193 48.6527 87.607 48.6527C87.5947 48.6527 87.5947 48.6527 87.5824 48.6404C87.5578 48.6281 87.5332 48.6281 87.4963 48.6158H87.484C87.4471 48.6158 87.4225 48.6035 87.3855 48.6035H87.1395C87.1148 48.6035 87.0902 48.6158 87.0779 48.6158C87.0533 48.6158 87.0287 48.6281 87.0041 48.6281H86.9918C86.9795 48.6281 86.9549 48.6404 86.9426 48.6404C86.8934 48.6527 86.8564 48.665 86.8072 48.6896C86.7949 48.6896 86.7826 48.702 86.7703 48.702C86.7457 48.7143 86.7211 48.7143 86.7088 48.7266C86.6965 48.7389 86.6719 48.7389 86.6596 48.7512C86.598 48.7758 86.5488 48.8127 86.4873 48.8373L84.0264 50.2523C83.9525 50.3016 83.8664 50.3385 83.7926 50.3754C83.7803 50.3754 83.7803 50.3877 83.768 50.3877C83.7187 50.4123 83.6572 50.4246 83.608 50.4369C83.5834 50.4492 83.5588 50.4492 83.5342 50.4492C83.5219 50.4492 83.4973 50.4615 83.485 50.4615C83.448 50.4738 83.4111 50.4738 83.3742 50.4738H83.2389C83.202 50.4738 83.1773 50.4615 83.1404 50.4492H83.1281C83.0912 50.4369 83.0666 50.4246 83.0297 50.4L84.8508 51.4582H84.8631C84.8877 51.4705 84.9 51.4828 84.9246 51.4828C84.9369 51.4828 84.9492 51.4951 84.9492 51.4951H84.9738C84.9984 51.5074 85.023 51.5074 85.0353 51.5074H85.1953C85.2322 51.5074 85.2568 51.5074 85.2937 51.4951H85.3061C85.3184 51.4951 85.343 51.4828 85.3553 51.4828C85.3799 51.4828 85.3922 51.4705 85.4168 51.4705H85.4291C85.4783 51.4582 85.5275 51.4336 85.5891 51.4213H85.6014C85.6014 51.4213 85.6137 51.4213 85.6137 51.409C85.6875 51.3721 85.7736 51.3352 85.8475 51.2859L88.3084 49.8709C88.3699 49.834 88.4191 49.8094 88.4807 49.7848C88.493 49.7725 88.5176 49.7725 88.5299 49.7602C88.5668 49.7479 88.5914 49.7355 88.6283 49.7232C88.6775 49.7109 88.7268 49.6863 88.7637 49.674C88.7883 49.6617 88.8129 49.6617 88.8252 49.6494C88.8498 49.6371 88.8744 49.6371 88.899 49.6371C88.9236 49.6248 88.9605 49.6248 88.9852 49.6248H89.1697C89.2189 49.6248 89.2559 49.6248 89.2928 49.6371H89.3051C89.342 49.6494 89.3789 49.6494 89.4158 49.6617C89.4281 49.6617 89.4281 49.6617 89.4404 49.674C89.4773 49.6863 89.5143 49.7109 89.5512 49.7232L87.7424 48.7143ZM73.3213 75.9076L73.309 73.0775C73.309 72.5854 73.026 72.2531 72.743 72.0932L70.9219 71.035C71.2049 71.2072 71.4879 71.5271 71.4879 72.0193L71.5002 74.8494C71.5002 75.2062 71.574 75.5016 71.6971 75.7107C71.7709 75.8338 71.8693 75.9322 71.9801 75.9937L73.8012 77.052C73.4936 76.8797 73.3213 76.4859 73.3213 75.9076Z" fill="#C68620"/>
<path d="M81.73 50.4492C82.1607 50.2031 82.6036 50.1539 82.9605 50.3631L84.7078 51.3598C85.0031 51.692 85.4337 51.6059 85.8644 51.3598L88.3253 49.9447C89.3343 49.3541 90.0603 49.7725 90.0726 50.9414L90.0849 54.5959L92.4105 55.9248C93.1365 56.1709 93.1365 57.4998 92.2751 58.8287L90.5402 61.8311C90.1095 62.4094 89.9618 63 89.9618 63.4922L89.9742 66.3223C89.9742 67.4912 89.2605 68.734 88.2392 69.3246L85.7783 70.7397C85.3476 70.9858 84.9046 71.5764 84.6216 72.0686L82.8867 75.0586C82.5298 75.6861 82.0992 76.1414 81.6562 76.3875C81.2255 76.6336 80.7826 76.6828 80.4257 76.4736L78.6908 75.477C78.3954 75.1447 77.9648 75.2309 77.5341 75.477L75.0609 76.9043C74.0519 77.4949 73.3259 77.0766 73.3136 75.9076L73.3013 73.0775C73.3013 72.5731 73.006 72.2408 72.723 72.0809L70.9757 71.0842C70.2497 70.6658 70.2497 69.5092 70.9634 68.2541L72.6984 65.0918C73.129 64.5135 73.2767 63.9229 73.2767 63.4307L73.2644 60.6006C73.2644 59.4316 73.9781 58.1889 74.9994 57.5982L77.4603 56.1832C77.891 55.9371 78.3339 55.3465 78.7646 54.7682L80.4995 51.7658C80.8564 51.1629 81.2994 50.7076 81.73 50.4492Z" fill="#FFCD2E"/>
<path d="M82.875 50.3016L81.1277 49.3049C81.0908 49.2803 81.0539 49.268 81.017 49.2557C81.017 49.2557 81.0047 49.2557 81.0047 49.2434C80.9924 49.2434 80.9801 49.231 80.9678 49.231C80.9555 49.2187 80.9309 49.2187 80.9186 49.2064C80.9062 49.2064 80.8816 49.1941 80.8693 49.1941C80.857 49.1941 80.8447 49.1941 80.8324 49.1818H80.8078C80.7709 49.1695 80.734 49.1695 80.6971 49.1695H80.451C80.4387 49.1695 80.4264 49.1695 80.4141 49.1818C80.3895 49.1818 80.3648 49.1941 80.3525 49.1941C80.3402 49.1941 80.3279 49.1941 80.3156 49.2064C80.3033 49.2064 80.291 49.2187 80.2787 49.2187L80.168 49.2557C80.1557 49.2557 80.1434 49.268 80.1311 49.268C80.1188 49.268 80.1187 49.2803 80.1064 49.2803C80.0449 49.3049 79.9711 49.3418 79.9096 49.3787C79.8604 49.4033 79.8111 49.4402 79.7619 49.4771C79.7496 49.4894 79.725 49.5018 79.7127 49.5141C79.6758 49.5387 79.6389 49.5633 79.6143 49.5879C79.602 49.6002 79.5773 49.6125 79.565 49.6371C79.5281 49.6617 79.5035 49.6986 79.4666 49.7232L79.4174 49.7725C79.4051 49.7848 79.3928 49.7848 79.3928 49.7971C79.3805 49.8094 79.3682 49.8217 79.3559 49.8463C79.3189 49.8832 79.282 49.9201 79.2451 49.9693L79.2082 50.0062C79.1959 50.0185 79.1836 50.0432 79.1713 50.0555C79.1467 50.0801 79.1221 50.1047 79.0975 50.1416C79.0852 50.1539 79.0729 50.1662 79.0605 50.1908C79.0482 50.2154 79.0236 50.2277 79.0113 50.2523C78.999 50.2769 78.9744 50.3016 78.9621 50.3262C78.9498 50.3385 78.9498 50.3508 78.9375 50.3631C78.9129 50.4 78.8883 50.4369 78.8637 50.4615C78.8514 50.4738 78.8391 50.4984 78.8268 50.5107L78.8145 50.523C78.7775 50.5846 78.7406 50.6461 78.7037 50.6953C78.7037 50.7076 78.6914 50.7076 78.6914 50.7199L76.9564 53.7223L76.6242 54.1652C76.5873 54.2021 76.5627 54.2391 76.5258 54.2883C76.5012 54.3129 76.4889 54.3375 76.4643 54.3621C76.4273 54.4113 76.3781 54.4605 76.3412 54.5098L76.3043 54.5467L76.292 54.559C76.2305 54.6328 76.1566 54.7066 76.0951 54.7682L76.0336 54.8297C75.9844 54.8666 75.9475 54.9158 75.8982 54.9527C75.8736 54.965 75.8613 54.9896 75.8367 55.0019C75.7752 55.0512 75.7137 55.1004 75.6521 55.1373L73.1912 56.5523C73.0805 56.6139 72.982 56.6877 72.8836 56.7615C72.8713 56.7738 72.859 56.7738 72.8467 56.7861C72.7482 56.86 72.6621 56.9338 72.576 57.0199L72.5514 57.0445C72.5391 57.0568 72.5391 57.0691 72.5268 57.0691C72.4898 57.106 72.4406 57.1553 72.4037 57.2045L72.3668 57.2414L72.3545 57.2537C72.3422 57.2783 72.3176 57.3029 72.3053 57.3152C72.2807 57.3398 72.2561 57.3644 72.2437 57.3891C72.2314 57.4014 72.2314 57.4137 72.2191 57.4137C72.2068 57.426 72.1945 57.4506 72.1822 57.4629C72.1699 57.4875 72.1576 57.4998 72.133 57.5244C72.1207 57.549 72.1084 57.5613 72.0961 57.5859C72.0838 57.5982 72.0715 57.6228 72.0592 57.6351C72.0469 57.6475 72.0469 57.6598 72.0346 57.6598C72.01 57.709 71.9854 57.7459 71.9484 57.7951V57.8074C71.9484 57.8197 71.9361 57.8197 71.9361 57.832C71.9115 57.8689 71.8992 57.8935 71.8869 57.9305C71.8746 57.9551 71.8623 57.9674 71.8623 57.992C71.85 58.0043 71.85 58.0166 71.8377 58.0412C71.8377 58.0535 71.8254 58.0658 71.8254 58.0781C71.8008 58.1273 71.7762 58.1643 71.7639 58.2135V58.2258C71.7639 58.2381 71.7516 58.2504 71.7516 58.2627C71.7393 58.2996 71.727 58.3365 71.7146 58.3611C71.7023 58.3734 71.7023 58.398 71.69 58.4226C71.6777 58.4473 71.6777 58.4596 71.6654 58.4842C71.6654 58.4965 71.6531 58.5088 71.6531 58.5334L71.6162 58.6441C71.6162 58.6564 71.6039 58.681 71.6039 58.6934V58.7057C71.5916 58.7549 71.5793 58.7918 71.567 58.841C71.567 58.8656 71.5547 58.8779 71.5547 58.9025V58.9148C71.5547 58.9271 71.5547 58.9394 71.5424 58.9518C71.5301 59.0133 71.5178 59.0871 71.5055 59.1486V59.2102C71.4932 59.3332 71.4809 59.4439 71.4809 59.567L71.4932 62.3971C71.4932 62.4955 71.4809 62.5939 71.4686 62.7047V62.7539C71.4686 62.7908 71.4562 62.8277 71.4439 62.8646C71.4439 62.9016 71.4316 62.9262 71.4193 62.9631C71.4193 62.9754 71.407 63 71.407 63.0123L71.3701 63.16C71.3701 63.1723 71.3578 63.1846 71.3578 63.1969C71.3332 63.2584 71.3209 63.3199 71.284 63.3814C71.284 63.3937 71.2717 63.3937 71.2717 63.406C71.2471 63.4676 71.2102 63.5291 71.1855 63.5906C71.1855 63.6029 71.1732 63.6029 71.1732 63.6152C71.1363 63.6768 71.0994 63.7506 71.0625 63.8121C71.0625 63.8244 71.0502 63.8244 71.0502 63.8367C71.001 63.9105 70.9641 63.9721 70.9025 64.0459L69.1553 67.2082C69.1307 67.2574 69.0937 67.3189 69.0691 67.3682C69.0568 67.3805 69.0568 67.4051 69.0445 67.4174C69.0322 67.442 69.0199 67.4543 69.0076 67.4789C68.9953 67.5035 68.983 67.5158 68.9707 67.5404C68.9584 67.5773 68.9461 67.6019 68.9215 67.6389C68.9092 67.6512 68.9092 67.6758 68.8969 67.6881C68.8969 67.7004 68.8846 67.7004 68.8846 67.7127C68.86 67.7742 68.8354 67.8234 68.8107 67.8726V67.885C68.8107 67.8973 68.7984 67.9219 68.7984 67.9342L68.7615 68.0449C68.7615 68.0572 68.7492 68.0818 68.7492 68.0941C68.7369 68.1187 68.7369 68.1434 68.7246 68.168C68.7246 68.1926 68.7123 68.2049 68.7123 68.2295C68.7 68.2541 68.7 68.2787 68.7 68.291C68.6877 68.3156 68.6877 68.3525 68.6754 68.3771C68.6754 68.3894 68.6631 68.4018 68.6631 68.4141C68.6631 68.4387 68.6508 68.451 68.6508 68.4756C68.6385 68.5125 68.6385 68.5617 68.6262 68.5986C68.6262 68.6109 68.6262 68.6232 68.6139 68.6355V68.6848C68.6139 68.734 68.6016 68.7832 68.6016 68.8201V69.1031C68.6016 69.1646 68.6139 69.2385 68.6262 69.2877V69.3C68.6385 69.3615 68.6508 69.4107 68.6754 69.46C68.6877 69.4723 68.6877 69.4969 68.7 69.5092C68.7123 69.5461 68.7369 69.583 68.7492 69.6199C68.7615 69.6445 68.7738 69.6568 68.7861 69.6691C68.8107 69.706 68.823 69.7307 68.8477 69.7553C68.86 69.7676 68.8723 69.7922 68.8846 69.8045C68.9092 69.8291 68.9338 69.866 68.9707 69.8906L69.0076 69.9275C69.0568 69.9644 69.0938 70.0014 69.143 70.026L70.9641 71.0842C70.9148 71.0596 70.8656 71.0227 70.8287 70.9857L70.7918 70.9488L70.7057 70.8627C70.6934 70.8504 70.6811 70.8258 70.6687 70.8135C70.6441 70.7889 70.6318 70.7519 70.6072 70.7273C70.5949 70.715 70.5826 70.6904 70.5703 70.6781C70.558 70.6412 70.5334 70.6043 70.5211 70.5674C70.5088 70.5551 70.5088 70.5305 70.4965 70.5182C70.4842 70.4689 70.4596 70.4197 70.4473 70.3582V70.3459C70.435 70.2844 70.4227 70.2228 70.4227 70.1613V70.0998V69.9521V69.8783C70.4227 69.8291 70.4227 69.7799 70.435 69.743C70.435 69.7184 70.4473 69.6814 70.4473 69.6568C70.4473 69.6199 70.4596 69.5707 70.4719 69.5338C70.4842 69.4969 70.4842 69.4723 70.4965 69.4353C70.5088 69.4107 70.5088 69.3738 70.5211 69.3492C70.5334 69.3123 70.5457 69.2631 70.558 69.2262C70.5703 69.2016 70.5703 69.1769 70.5826 69.1523C70.5949 69.1031 70.6195 69.0539 70.6318 69.0047C70.6318 68.9924 70.6441 68.9801 70.6441 68.9555C70.6687 68.8939 70.6934 68.8201 70.7303 68.7586C70.7426 68.7463 70.7426 68.7217 70.7549 68.7094C70.7795 68.6602 70.8041 68.5986 70.8287 68.5494C70.841 68.5248 70.8533 68.5125 70.8656 68.4879C70.9025 68.4141 70.9395 68.3525 70.9764 68.2787L72.7113 65.1164C72.7359 65.0918 72.7482 65.0672 72.7605 65.0426L72.8344 64.9318C72.8344 64.9195 72.8467 64.9195 72.8467 64.9072C72.8467 64.8949 72.859 64.8949 72.859 64.8826C72.8713 64.858 72.8836 64.8334 72.8959 64.8211C72.9205 64.7842 72.9328 64.7473 72.9574 64.7226C72.9574 64.7103 72.9697 64.7103 72.9697 64.698C72.9697 64.6857 72.982 64.6857 72.982 64.6734C72.9943 64.6611 73.0066 64.6365 73.0066 64.6242C73.0189 64.5873 73.0436 64.5504 73.0559 64.5258C73.0559 64.5135 73.0682 64.5012 73.0682 64.4889C73.0682 64.4766 73.0805 64.4766 73.0805 64.4643C73.0928 64.4519 73.0928 64.4273 73.1051 64.415L73.142 64.3043C73.142 64.292 73.142 64.292 73.1543 64.2797C73.1543 64.2674 73.1666 64.2551 73.1666 64.2428C73.1789 64.2182 73.1789 64.1935 73.1912 64.1689C73.2035 64.1443 73.2035 64.1197 73.2158 64.0951C73.2158 64.0828 73.2281 64.0582 73.2281 64.0459V64.0213C73.2281 63.9967 73.2404 63.9721 73.2404 63.9475C73.2527 63.9105 73.2527 63.8736 73.265 63.8367V63.8121V63.7752C73.2773 63.6644 73.2896 63.566 73.2896 63.4676L73.2773 60.6375C73.2773 60.5144 73.2896 60.4037 73.302 60.2807V60.2191C73.3143 60.1576 73.3266 60.0838 73.3389 60.0223C73.3389 60.01 73.3389 59.9853 73.3512 59.973C73.3512 59.9484 73.3635 59.9361 73.3635 59.9115L73.4004 59.7639C73.4004 59.7516 73.4127 59.7269 73.4127 59.7146C73.425 59.6654 73.4373 59.6162 73.4619 59.567C73.4742 59.5424 73.4742 59.5301 73.4865 59.5055C73.5111 59.4562 73.5234 59.3947 73.548 59.3455C73.548 59.3332 73.5603 59.3209 73.5603 59.3209C73.585 59.2594 73.6096 59.1978 73.6465 59.1363C73.6588 59.124 73.6588 59.1117 73.6711 59.0994C73.6957 59.0502 73.7326 58.9887 73.7572 58.9394C73.7572 58.9271 73.7695 58.9271 73.7695 58.9148C73.8064 58.8533 73.8434 58.8041 73.8803 58.7426C73.8926 58.7303 73.9049 58.7057 73.9172 58.6934C73.9418 58.6564 73.9787 58.6072 74.0033 58.5703C74.0156 58.558 74.0279 58.5334 74.0402 58.5211C74.0648 58.4842 74.1018 58.4473 74.1264 58.4103C74.1387 58.3857 74.1633 58.3611 74.1756 58.3488C74.1879 58.3242 74.2125 58.3119 74.2248 58.2873C74.2617 58.2381 74.3109 58.2012 74.3479 58.1519L74.3971 58.1027C74.4832 58.0166 74.5693 57.9428 74.6678 57.8689C74.6801 57.8566 74.6924 57.8566 74.7047 57.8443C74.8031 57.7705 74.9016 57.6967 75.0123 57.6351L77.4732 56.2201C77.5348 56.1832 77.5963 56.134 77.6578 56.0848C77.6824 56.0725 77.6947 56.0478 77.7193 56.0355C77.7686 55.9986 77.8055 55.9617 77.8547 55.9125C77.867 55.9002 77.8793 55.9002 77.8916 55.8879L77.9162 55.8633C77.9777 55.8018 78.0516 55.7279 78.1131 55.6541L78.1254 55.6418C78.1377 55.6295 78.15 55.6049 78.1623 55.5926C78.1992 55.5434 78.2361 55.5064 78.2854 55.4572C78.31 55.4326 78.3223 55.408 78.3469 55.3834C78.3715 55.3465 78.4084 55.3096 78.433 55.2727C78.433 55.2727 78.433 55.2603 78.4453 55.2603L78.7775 54.8174L80.5125 51.815C80.5494 51.7412 80.5986 51.6674 80.6479 51.6059C80.6602 51.5935 80.6725 51.5689 80.6848 51.5566C80.7217 51.5074 80.7463 51.4582 80.7832 51.4213C80.7955 51.3967 80.8201 51.3721 80.8324 51.3475C80.857 51.3105 80.8939 51.2736 80.9186 51.2367C80.9432 51.2121 80.9678 51.1752 80.9924 51.1506C81.017 51.126 81.0416 51.0891 81.0662 51.0644C81.1031 51.0275 81.14 50.9783 81.177 50.9414L81.2508 50.8676L81.3 50.8184C81.3369 50.7937 81.3615 50.7568 81.3984 50.7322L81.4477 50.683C81.4846 50.6584 81.5215 50.6338 81.5461 50.6092C81.5584 50.5969 81.583 50.5846 81.5953 50.5723C81.6445 50.5353 81.6937 50.5107 81.743 50.4738C81.8045 50.4369 81.8783 50.4 81.9398 50.3754C81.9645 50.3631 81.9891 50.3631 82.0014 50.3508L82.1121 50.3139C82.1367 50.3016 82.1613 50.3016 82.1859 50.2893C82.2106 50.2893 82.2352 50.2769 82.2475 50.2769C82.2844 50.2769 82.309 50.2646 82.3459 50.2646H82.5305C82.5797 50.2646 82.6166 50.2769 82.6658 50.2769C82.6781 50.2769 82.6904 50.2769 82.7027 50.2893C82.7396 50.3016 82.7643 50.3016 82.8012 50.3139C82.8135 50.3139 82.8258 50.3262 82.8381 50.3262C82.8873 50.3385 82.9242 50.3631 82.9611 50.3877L84.7084 51.3844L82.875 50.3016Z" fill="#C68620"/>
<g clip-path="url(#clip0_16_1822)">
<path fill-rule="evenodd" clip-rule="evenodd" d="M80.9507 57.2065C83.7537 56.3123 86.0825 58.4051 86.1522 61.8809C86.222 65.3568 84.0062 68.8994 81.2032 69.7935C78.4001 70.6877 76.0713 68.595 76.0016 65.1191C75.9319 61.6433 78.1476 58.1007 80.9507 57.2065Z" fill="#BF8633"/>
<path fill-rule="evenodd" clip-rule="evenodd" d="M81.5398 57.8357C84.1677 56.9869 86.3509 58.9734 86.4163 62.2727C86.4817 65.572 84.4044 68.9346 81.7765 69.7833C79.1486 70.632 76.9653 68.6456 76.8999 65.3464C76.8346 62.0471 78.9119 58.6844 81.5398 57.8357Z" fill="#E5CFAF"/>
<path fill-rule="evenodd" clip-rule="evenodd" d="M82.3384 58.5057C84.8212 57.7037 86.8841 59.5806 86.9459 62.6979C87.0077 65.8152 85.0449 68.9924 82.5621 69.7944C80.0792 70.5963 78.0163 68.7195 77.9545 65.6022C77.8928 62.4849 79.8555 59.3077 82.3384 58.5057Z" fill="white"/>
<path fill-rule="evenodd" clip-rule="evenodd" d="M82.0078 64.3779L83.2364 63.4814V67.2576L82.0078 68.1541V64.3779Z" fill="#C68620"/>
<path fill-rule="evenodd" clip-rule="evenodd" d="M82.4043 60.6338C82.8279 60.4419 83.1799 60.8908 83.1904 61.6362C83.2009 62.3815 82.8661 63.1413 82.4425 63.333C82.0188 63.5248 81.6671 63.0761 81.6565 62.3307C81.6459 61.5853 81.9807 60.8257 82.4043 60.6338Z" fill="#C68620"/>
<path fill-rule="evenodd" clip-rule="evenodd" d="M82.4053 60.6335C82.8286 60.4422 83.1799 60.8914 83.1904 61.6364C83.2009 62.3814 82.8667 63.1406 82.4434 63.3327C82.3797 63.3615 82.3173 63.3746 82.2578 63.3757C82.6164 63.1019 82.8833 62.4258 82.874 61.7605C82.8651 61.1276 82.6095 60.7092 82.2734 60.7146C82.3162 60.682 82.3602 60.6539 82.4053 60.6335Z" fill="#E5CFAF"/>
<path d="M83.2363 67.2578L82.0078 68.1543V67.8838L82.8662 67.2578V63.751L83.2363 63.4814V67.2578Z" fill="#E5CFAF"/>
</g>
<defs>
<clipPath id="clip0_16_1822">
<rect width="11" height="13" fill="white" transform="translate(76 57)"/>
</clipPath>
</defs>
</svg>
